<svg id="Layer_1" data-name="Layer 1" xmlns="http://www.w3.org/2000/svg" viewBox="0 0 2560 1600"><defs><style>.cls-1{fill:none;stroke:#1d1d1b;stroke-linecap:round;stroke-width:3px;}</style></defs><title>elektron_web_01</title><line class="cls-1" x1="2558.5" y1="1600.08" x2="1734.47" y2="1130.08"/><line class="cls-1" x1="1.8" y1="1600.08" x2="825.83" y2="1128.58"/><line class="cls-1" x1="1.78" y1="0.49" x2="440.7" y2="300.67"/><line class="cls-1" x1="2558.33" y1="0.55" x2="1734.34" y2="300.61"/><line class="cls-1" x1="2146.48" y1="1294.58" x2="843.61" y2="1294.58"/><line class="cls-1" x1="1905.27" y1="485.58" x2="602.39" y2="485.58"/><line class="cls-1" x1="805.85" y1="610.58" x2="1.5" y2="375.08"/><line class="cls-1" x1="2558.5" y1="1195.08" x2="1825.71" y2="978.08"/><line class="cls-1" x1="2557" y1="667.08" x2="1734.47" y2="667.08"/><line class="cls-1" x1="1906.47" y1="1051.58" x2="603.59" y2="1051.58"/><line class="cls-1" x1="1534.7" y1="300.58" x2="231.82" y2="300.58"/><line class="cls-1" x1="2043.6" y1="115.08" x2="2043.6" y2="1295.08"/><line class="cls-1" x1="1848.83" y1="303.67" x2="1848.83" y2="1125.58"/><line class="cls-1" x1="1599.13" y1="485.08" x2="1599.13" y2="965.08"/><line class="cls-1" x1="1299.48" y1="608.58" x2="1534.7" y2="608.58"/><line class="cls-1" x1="785.88" y1="737.08" x2="785.88" y2="1217.08"/><line class="cls-1" x1="1619.1" y1="485.08" x2="1619.1" y2="965.08"/><line class="cls-1" x1="805.85" y1="737.08" x2="805.85" y2="1217.08"/><line class="cls-1" x1="1639.08" y1="485.08" x2="1639.08" y2="965.08"/><line class="cls-1" x1="825.83" y1="737.08" x2="825.83" y2="1217.08"/><line class="cls-1" x1="979.85" y1="370.08" x2="979.85" y2="850.08"/><line class="cls-1" x1="1108.7" y1="550.02" x2="1108.7" y2="850.08"/><line class="cls-1" x1="1329.5" y1="1150.08" x2="1329.5" y2="1600.08"/><line class="cls-1" x1="390.54" y1="115.08" x2="390.54" y2="1295.08"/><line class="cls-1" x1="320.63" y1="368.58" x2="320.63" y2="1548.58"/><line class="cls-1" x1="745.92" y1="115.08" x2="745.92" y2="1295.08"/><line class="cls-1" x1="2098.54" y1="195.08" x2="2098.54" y2="1375.08"/></svg>