<svg id="Layer_1" data-name="Layer 1" xmlns="http://www.w3.org/2000/svg" viewBox="0 0 2560 1600"><defs><style>.cls-1{fill:none;stroke:red;stroke-linecap:round;stroke-width:3px;}</style></defs><title>elektron_web_01</title><line class="cls-1" y1="0.21" x2="825" y2="470.21"/><line class="cls-1" x1="2559.7" y1="0.21" x2="1734.7" y2="471.71"/><line class="cls-1" x1="2559.72" y1="1599.79" x2="2120.28" y2="1299.62"/><line class="cls-1" x1="0.17" y1="1599.74" x2="825.13" y2="1299.68"/><line class="cls-1" x1="412.5" y1="305.71" x2="1716.91" y2="305.71"/><line class="cls-1" x1="654" y1="1114.71" x2="1958.41" y2="1114.71"/><line class="cls-1" x1="1754.7" y1="989.71" x2="2560" y2="1225.21"/><line class="cls-1" y1="405.21" x2="733.65" y2="622.21"/><line class="cls-1" x1="1.5" y1="933.21" x2="825" y2="933.21"/><line class="cls-1" x1="652.8" y1="548.71" x2="1957.2" y2="548.71"/><line class="cls-1" x1="1025" y1="1299.71" x2="2329.41" y2="1299.71"/><line class="cls-1" x1="515.5" y1="1485.21" x2="515.5" y2="305.21"/><line class="cls-1" x1="710.5" y1="1296.62" x2="710.5" y2="474.71"/><line class="cls-1" x1="1260.5" y1="991.71" x2="1025" y2="991.71"/><line class="cls-1" x1="1774.7" y1="863.21" x2="1774.7" y2="383.21"/><line class="cls-1" x1="1754.7" y1="863.21" x2="1754.7" y2="383.21"/><line class="cls-1" x1="1734.7" y1="863.21" x2="1734.7" y2="383.21"/><line class="cls-1" x1="1580.5" y1="1230.21" x2="1580.5" y2="750.21"/><line class="cls-1" x1="1451.5" y1="1050.27" x2="1451.5" y2="750.21"/><line class="cls-1" x1="1280.5" y1="450.21" x2="1280.5" y2="0.21"/><line class="cls-1" x1="2170.5" y1="1485.21" x2="2170.5" y2="305.21"/><line class="cls-1" x1="2240.5" y1="1231.71" x2="2240.5" y2="51.71"/><line class="cls-1" x1="1814.7" y1="1485.21" x2="1814.7" y2="305.21"/><line class="cls-1" x1="460.5" y1="1405.21" x2="460.5" y2="225.21"/></svg>