<svg id="Layer_1" data-name="Layer 1" xmlns="http://www.w3.org/2000/svg" viewBox="0 0 2560 1600"><defs><style>.cls-1{fill:none;stroke:#1d1d1b;stroke-linecap:round;stroke-width:3px;}</style></defs><title>elektron_web_01</title><line class="cls-1" x1="1909.79" y1="1598.5" x2="1439.79" y2="1084.61"/><line class="cls-1" x1="1909.79" y1="1.69" x2="1438.29" y2="515.58"/><line class="cls-1" x1="310.21" y1="1.68" x2="610.38" y2="274.88"/><line class="cls-1" x1="310.26" y1="1598.39" x2="610.32" y2="1084.53"/><line class="cls-1" x1="1604.29" y1="1340.99" x2="1604.29" y2="527.82"/><line class="cls-1" x1="795.29" y1="1190.23" x2="795.29" y2="377.06"/><line class="cls-1" x1="920.29" y1="503.09" x2="684.79" y2="1.5"/><line class="cls-1" x1="1504.79" y1="1598.5" x2="1287.79" y2="1141.63"/><line class="cls-1" x1="976.79" y1="1597.56" x2="976.79" y2="1084.61"/><line class="cls-1" x1="1361.29" y1="1190.98" x2="1361.29" y2="377.81"/><line class="cls-1" x1="610.29" y1="958.62" x2="610.29" y2="145.45"/><line class="cls-1" x1="424.79" y1="1276.92" x2="1604.79" y2="1276.92"/><line class="cls-1" x1="613.38" y1="1155.27" x2="1435.29" y2="1155.27"/><line class="cls-1" x1="794.79" y1="999.31" x2="1274.79" y2="999.31"/><line class="cls-1" x1="918.29" y1="812.74" x2="918.29" y2="958.62"/><line class="cls-1" x1="1046.79" y1="491.39" x2="1526.79" y2="491.39"/><line class="cls-1" x1="794.79" y1="1011.79" x2="1274.79" y2="1011.79"/><line class="cls-1" x1="1046.79" y1="503.87" x2="1526.79" y2="503.87"/><line class="cls-1" x1="794.79" y1="1024.27" x2="1274.79" y2="1024.27"/><line class="cls-1" x1="1046.79" y1="516.34" x2="1526.79" y2="516.34"/><line class="cls-1" x1="679.79" y1="612.54" x2="1159.79" y2="612.54"/><line class="cls-1" x1="859.73" y1="693.01" x2="1159.79" y2="693.01"/><line class="cls-1" x1="1459.79" y1="799.69" x2="1909.79" y2="799.69"/><line class="cls-1" x1="424.79" y1="244.48" x2="1604.79" y2="244.48"/><line class="cls-1" x1="678.29" y1="200.81" x2="1858.29" y2="200.81"/><line class="cls-1" x1="424.79" y1="466.44" x2="1604.79" y2="466.44"/><line class="cls-1" x1="504.79" y1="1311.23" x2="1684.79" y2="1311.23"/></svg>