<svg id="Layer_1" data-name="Layer 1" xmlns="http://www.w3.org/2000/svg" viewBox="0 0 2560 1600"><defs><style>.cls-1{fill:none;stroke:red;stroke-linecap:round;stroke-width:3px;}</style></defs><title>elektron_web_01</title><line class="cls-1" y1="1599.79" x2="825" y2="1129.79"/><line class="cls-1" x1="2559.7" y1="1599.79" x2="1734.7" y2="1128.29"/><line class="cls-1" x1="2559.72" y1="0.21" x2="2120.28" y2="300.38"/><line class="cls-1" x1="0.17" y1="0.26" x2="825.13" y2="300.32"/><line class="cls-1" x1="412.5" y1="1294.29" x2="1716.91" y2="1294.29"/><line class="cls-1" x1="654" y1="485.29" x2="1958.41" y2="485.29"/><line class="cls-1" x1="1754.7" y1="610.29" x2="2560" y2="374.79"/><line class="cls-1" y1="1194.79" x2="733.65" y2="977.79"/><line class="cls-1" x1="1.5" y1="666.79" x2="825" y2="666.79"/><line class="cls-1" x1="652.8" y1="1051.29" x2="1957.2" y2="1051.29"/><line class="cls-1" x1="1025" y1="300.29" x2="2329.41" y2="300.29"/><line class="cls-1" x1="515.5" y1="114.79" x2="515.5" y2="1294.79"/><line class="cls-1" x1="710.5" y1="303.38" x2="710.5" y2="1125.29"/><line class="cls-1" x1="960.5" y1="484.79" x2="960.5" y2="964.79"/><line class="cls-1" x1="1260.5" y1="608.29" x2="1025" y2="608.29"/><line class="cls-1" x1="1774.7" y1="736.79" x2="1774.7" y2="1216.79"/><line class="cls-1" x1="940.5" y1="484.79" x2="940.5" y2="964.79"/><line class="cls-1" x1="1754.7" y1="736.79" x2="1754.7" y2="1216.79"/><line class="cls-1" x1="920.5" y1="484.79" x2="920.5" y2="964.79"/><line class="cls-1" x1="1734.7" y1="736.79" x2="1734.7" y2="1216.79"/><line class="cls-1" x1="1580.5" y1="369.79" x2="1580.5" y2="849.79"/><line class="cls-1" x1="1451.5" y1="549.73" x2="1451.5" y2="849.79"/><line class="cls-1" x1="1280.5" y1="1149.79" x2="1280.5" y2="1599.79"/><line class="cls-1" x1="2170.5" y1="114.79" x2="2170.5" y2="1294.79"/><line class="cls-1" x1="2240.5" y1="368.29" x2="2240.5" y2="1548.29"/><line class="cls-1" x1="1814.7" y1="114.79" x2="1814.7" y2="1294.79"/><line class="cls-1" x1="460.5" y1="194.79" x2="460.5" y2="1374.79"/></svg>